Coordinates
version=1
nRows=21
nColumns=22
inDegrees=yes

Units are S.I. units (second, meters, Newtons, ...)
If the header above contains a line with 'inDegrees', this indicates whether rotational values are in degrees (yes) or radians (no).

endheader
time	pelvis_tilt	pelvis_list	pelvis_rotation	pelvis_tx	pelvis_ty	pelvis_tz	hip_flexion_r	hip_adduction_r	hip_rotation_r	knee_angle_r	ankle_angle_r	subtalar_angle_r	hip_flexion_l	hip_adduction_l	hip_rotation_l	knee_angle_l	ankle_angle_l	subtalar_angle_l	lumbar_extension	lumbar_bending	lumbar_rotation
      2.75000000	      6.36112883	     -1.84696013	     42.82247834	      0.33399662	      1.07992172	      0.91563315	      2.54457265	      6.21853970	      1.05577688	    -16.44553024	     10.89296871	     -2.90513064	     14.87523792	     -1.67887463	      7.96292436	    -64.06513741	     -2.09695598	      9.72668815	     -6.38918863	      1.89614932	     -2.71633380
      2.76000000	      6.24781608	     -1.70411968	     43.01579623	      0.33987086	      1.08040034	      0.91165146	      1.94675050	      6.09971999	      0.92013960	    -16.12299079	     11.11118204	     -2.92211576	     15.82585761	     -1.71459940	      7.29541182	    -63.56712486	     -1.07638638	      8.35399961	     -6.42278614	      1.67368966	     -2.33438212
      2.77000000	      6.13802071	     -1.55924031	     43.19558377	      0.34570662	      1.08081477	      0.90764691	      1.34294369	      5.98176491	      0.78825519	    -15.79752658	     11.34520138	     -2.90537974	     16.70759615	     -1.78122372	      6.58150841	    -62.86587173	     -0.07213977	      7.10091926	     -6.46747857	      1.45233699	     -1.95049996
      2.78000000	      6.04183674	     -1.40895032	     43.38500395	      0.35148301	      1.08116445	      0.90355963	      0.72479862	      5.86616028	      0.62539475	    -15.47237813	     11.59091266	     -2.86234650	     17.50921571	     -1.86958324	      5.84895224	    -61.97231455	      0.88776625	      5.96210437	     -6.52848089	      1.24196818	     -1.58174811
      2.79000000	      5.96187286	     -1.25142125	     43.57126769	      0.35721082	      1.08144609	      0.89940682	      0.09325878	      5.75504824	      0.45653085	    -15.15851459	     11.85179155	     -2.79967651	     18.22398429	     -1.97909046	      5.08981967	    -60.89474312	      1.78833524	      4.94351464	     -6.61039467	      1.04093302	     -1.22683155
      2.80000000	      5.89628925	     -1.08585904	     43.76389812	      0.36287317	      1.08165377	      0.89516238	     -0.54957016	      5.64617608	      0.27699887	    -14.85771614	     12.12648320	     -2.72481508	     18.85281275	     -2.09833980	      4.31697617	    -59.64483016	      2.62247069	      4.05598421	     -6.71164936	      0.85034274	     -0.89208938
      2.81000000	      5.83916843	     -0.91387816	     43.95981886	      0.36846707	      1.08177654	      0.89082539	     -1.19497692	      5.53657535	      0.09169768	    -14.57598453	     12.41676201	     -2.64656809	     19.40185993	     -2.21905172	      3.53201782	    -58.23696011	      3.39049407	      3.30540555	     -6.82554709	      0.66721729	     -0.57712006
      2.82000000	      5.79150942	     -0.74302711	     44.17167328	      0.37397665	      1.08180002	      0.88638010	     -1.83605321	      5.43280421	     -0.11607503	    -14.31722812	     12.71921645	     -2.57526627	     19.88156277	     -2.34079223	      2.74759584	    -56.68979694	      4.10263935	      2.66950559	     -6.94568185	      0.50060026	     -0.29660964
      2.83000000	      5.73571565	     -0.57887798	     44.38496340	      0.37942412	      1.08170953	      0.88184809	     -2.45520589	      5.32739742	     -0.32020914	    -14.08253344	     13.02738130	     -2.52434796	     20.30880786	     -2.45829744	      1.94705078	    -55.01560837	      4.76071143	      2.17157572	     -7.05214178	      0.33737395	     -0.03296062
      2.84000000	      5.66822149	     -0.43452530	     44.60448606	      0.38480132	      1.08148220	      0.87723171	     -3.03869772	      5.22693363	     -0.53545830	    -13.87395775	     13.35185153	     -2.50234528	     20.70324727	     -2.57422180	      1.13847579	    -53.23547158	      5.36929113	      1.79194483	     -7.13208906	      0.18472299	      0.22407965
      2.85000000	      5.58787040	     -0.30945468	     44.82654492	      0.39011489	      1.08111444	      0.87255178	     -3.57756290	      5.13144877	     -0.75267504	    -13.70759370	     13.70356309	     -2.50898821	     21.07094599	     -2.69643457	      0.29373736	    -51.36801039	      5.92748267	      1.50272707	     -7.18625574	      0.04123437	      0.44028871
      2.86000000	      5.51598476	     -0.17322224	     45.06238564	      0.39537842	      1.08070116	      0.86774176	     -4.13734294	      5.03380431	     -0.97681219	    -13.53659295	     13.97847521	     -2.54053422	     21.35983653	     -2.80369562	     -0.56981661	    -49.40518240	      6.42593585	      1.20668612	     -7.24889225	     -0.09943839	      0.62684859
      2.87000000	      5.41872561	     -0.07026725	     45.30079200	      0.40056934	      1.08012608	      0.86286104	     -4.63458845	      4.94100146	     -1.20273896	    -13.40384405	     14.29542987	     -2.59711605	     21.64709688	     -2.90549686	     -1.45711592	    -47.38349276	      6.85209559	      1.01261343	     -7.26279377	     -0.23102409	      0.80658211
      2.88000000	      5.33594577	      0.04777595	     45.54751610	      0.40571117	      1.07951730	      0.85785596	     -5.15886058	      4.84767986	     -1.43290209	    -13.26839968	     14.57191117	     -2.68602676	     21.85049226	     -2.98948257	     -2.37292648	    -45.28871952	      7.20478566	      0.83193764	     -7.29465337	     -0.36093615	      0.98045114
      2.89000000	      5.20133722	      0.12573084	     45.79101927	      0.41077137	      1.07872187	      0.85277674	     -5.58647888	      4.74189317	     -1.65230955	    -13.18985604	     14.90829233	     -2.77191397	     22.07894047	     -3.05224122	     -3.34510496	    -43.15390919	      7.45442019	      0.76548033	     -7.24893709	     -0.49572857	      1.13931488
      2.90000000	      5.11493192	      0.26454400	     46.03245990	      0.41577786	      1.07800128	      0.84758439	     -6.10448738	      4.62582438	     -1.86814786	    -13.10123216	     15.16331810	     -2.89904719	     22.15512716	     -3.09101379	     -4.38238664	    -40.95046445	      7.61932914	      0.69205162	     -7.29327682	     -0.63532786	      1.26463510
      2.91000000	      4.99159858	      0.37546192	     46.27604145	      0.42066917	      1.07714872	      0.84231667	     -6.55294835	      4.49781434	     -2.08910239	    -13.05143556	     15.46056521	     -3.00703894	     22.22839890	     -3.08958823	     -5.44519385	    -38.70771165	      7.69765876	      0.69375566	     -7.28942985	     -0.77777041	      1.38806652
      2.92000000	      4.84000443	      0.47555503	     46.52278299	      0.42541952	      1.07620045	      0.83696296	     -6.95131426	      4.34972626	     -2.30630312	    -13.04224762	     15.79250398	     -3.09259378	     22.28176690	     -3.04152806	     -6.54586435	    -36.43885536	      7.67367382	      0.75146954	     -7.26123170	     -0.92242552	      1.47079010
      2.93000000	      4.68476707	      0.58334377	     46.77422706	      0.43002229	      1.07522858	      0.83151389	     -7.34016233	      4.18517689	     -2.54526880	    -13.05501219	     16.11056535	     -3.15752607	     22.27442801	     -2.93876190	     -7.64569237	    -34.14029721	      7.59536311	      0.84298518	     -7.24482832	     -1.06678199	      1.54126384
      2.94000000	      4.49858644	      0.67295367	     47.02920431	      0.43444426	      1.07418115	      0.82599566	     -7.66553167	      4.00037640	     -2.80017550	    -13.11337647	     16.44095269	     -3.18808717	     22.25584194	     -2.77407210	     -8.72054941	    -31.83410565	      7.45658753	      0.95897996	     -7.20167063	     -1.21012993	      1.58998515
      2.95000000	      4.27355119	      0.73648833	     47.28659904	      0.43867821	      1.07304401	      0.82041596	     -7.91004084	      3.79371147	     -3.06161051	    -13.22926444	     16.79627158	     -3.18814513	     22.24594009	     -2.54839790	     -9.76052808	    -29.54721612	      7.26651538	      1.07346441	     -7.12100289	     -1.35259712	      1.60482805
